<svg xmlns="http://www.w3.org/2000/svg" viewBox="0 0 841.9 595.3">
  <g fill="#61DAFB">
    <path d="M666.3 296.5c0 35.7-3.6 69.6-10 100.5-3.6 17.2-8.5 33.2-14.4 48-5.7 14.4-12.2 27.6-19.3 39.3-13.8 22.9-28.9 41.6-45 56.3-16.1 14.6-33.7 25.8-52.3 33.7-18.6 7.9-38.7 12.1-60.3 12.1-21.5 0-41.5-4.2-60.1-12.1-18.7-7.9-36.2-19.1-52.4-33.7-16.2-14.7-31.2-33.4-45-56.3-7.1-11.7-13.6-24.9-19.3-39.3-5.8-14.8-10.7-30.8-14.4-48-6.5-30.9-10-64.8-10-100.5s3.6-69.6 10-100.5c3.7-17.2 8.6-33.2 14.4-48 5.7-14.4 12.2-27.6 19.3-39.3 13.8-22.9 28.9-41.6 45-56.3 16.1-14.6 33.7-25.8 52.4-33.7 18.7-7.9 38.7-12.1 60.1-12.1 21.6 0 41.7 4.2 60.3 12.1 18.6 7.9 36.2 19.1 52.3 33.7 16.1 14.7 31.2 33.4 45 56.3 7.1 11.7 13.6 24.9 19.3 39.3 5.9 14.8 10.8 30.8 14.4 48 6.5 30.9 10 64.8 10 100.5zM421 141.9c-23.3 0-44.1 6.5-62.3 19.6-18.2 13.1-34.1 29.9-47.9 50.3-13.8 20.3-25.3 43.7-34.5 70.1s-14.8 55.4-14.8 85.7 5 58.7 14.8 85.8c9.2 27.2 20.7 50.6 34.5 70 13.8 20.4 29.7 37.2 47.9 50.3 18.2 13.1 39 19.6 62.3 19.6s44.1-6.5 62.3-19.6c18.2-13.1 34.1-29.9 47.9-50.3 13.8-20.4 25.3-43.7 34.5-70 9.2-27.2 14.8-55.4 14.8-85.8 0-30.3-4.9-58.6-14.8-85.7-9.2-26.4-20.7-49.8-34.5-70.1-13.8-20.4-29.7-37.2-47.9-50.3-18.2-13.1-39-19.6-62.3-19.6z"/>
  </g>
</svg>
